<svg width="164" height="35" viewBox="0 0 164 35" fill="none" xmlns="http://www.w3.org/2000/svg">
<path d="M11.7977 10.3H6.35868V25H7.49268V18.868H11.8397L15.1787 25H16.4597L12.9737 18.658C14.0237 18.49 14.8427 18.028 15.4727 17.293C16.1027 16.579 16.4177 15.676 16.4177 14.584C16.4177 13.282 15.9977 12.253 15.1577 11.476C14.3177 10.699 13.1837 10.3 11.7977 10.3ZM7.49268 17.818V11.35H11.7347C12.8057 11.35 13.6667 11.644 14.2967 12.232C14.9267 12.82 15.2627 13.618 15.2627 14.584C15.2627 15.571 14.9267 16.348 14.2967 16.936C13.6457 17.524 12.7847 17.818 11.7137 17.818H7.49268ZM18.8479 10.3V25H19.9819V21.157L23.3419 17.314L28.6129 25H29.9779L24.1609 16.453L29.4949 10.3H28.1089L19.9819 19.561V10.3H18.8479Z" fill="black"/>
<path d="M46.282 10.6H40.584V26H41.772V19.576H46.326L49.824 26H51.166L47.514 19.356C48.614 19.18 49.472 18.696 50.132 17.926C50.792 17.178 51.122 16.232 51.122 15.088C51.122 13.724 50.682 12.646 49.802 11.832C48.922 11.018 47.734 10.6 46.282 10.6ZM41.772 18.476V11.7H46.216C47.338 11.7 48.24 12.008 48.9 12.624C49.56 13.24 49.912 14.076 49.912 15.088C49.912 16.122 49.56 16.936 48.9 17.552C48.218 18.168 47.316 18.476 46.194 18.476H41.772ZM54.9809 25.406C55.7729 25.89 56.6969 26.132 57.7529 26.132C58.7869 26.132 59.7109 25.89 60.5249 25.406C61.3389 24.922 61.9769 24.262 62.4389 23.382C62.8789 22.524 63.1209 21.534 63.1209 20.412C63.1209 19.312 62.8789 18.322 62.4389 17.464C61.9769 16.606 61.3389 15.924 60.5249 15.44C59.7109 14.956 58.7869 14.714 57.7529 14.714C56.6969 14.714 55.7729 14.956 54.9809 15.44C54.1669 15.924 53.5289 16.606 53.0889 17.464C52.6269 18.322 52.4069 19.312 52.4069 20.412C52.4069 21.534 52.6269 22.524 53.0889 23.382C53.5289 24.262 54.1669 24.922 54.9809 25.406ZM59.9529 24.526C59.2929 24.922 58.5669 25.12 57.7529 25.12C56.9169 25.12 56.1909 24.922 55.5529 24.526C54.9149 24.13 54.4309 23.58 54.0789 22.854C53.7269 22.15 53.5509 21.336 53.5509 20.412C53.5509 19.51 53.7269 18.696 54.0789 17.992C54.4309 17.288 54.9149 16.716 55.5529 16.32C56.1909 15.924 56.9169 15.704 57.7529 15.704C58.5669 15.704 59.2929 15.924 59.9529 16.32C60.5909 16.716 61.0969 17.288 61.4489 17.992C61.8009 18.696 61.9769 19.51 61.9769 20.412C61.9769 21.336 61.8009 22.15 61.4489 22.854C61.0969 23.58 60.5909 24.13 59.9529 24.526ZM73.7303 15.968C72.9383 15.132 71.8603 14.714 70.5403 14.714C69.5283 14.714 68.6923 14.978 68.0323 15.462C67.3503 15.968 66.8443 16.65 66.5143 17.486V10.6H65.3923V26H66.5143V20.5C66.5143 19.048 66.8443 17.904 67.5483 17.046C68.2303 16.188 69.1763 15.748 70.3643 15.748C71.4423 15.748 72.2783 16.1 72.8943 16.804C73.5103 17.508 73.8183 18.498 73.8183 19.796V26H74.9403V19.752C74.9403 18.08 74.5223 16.804 73.7303 15.968ZM78.567 10.974C78.413 10.842 78.215 10.754 77.995 10.754C77.775 10.754 77.577 10.842 77.423 10.974C77.269 11.128 77.203 11.326 77.203 11.546C77.203 11.788 77.269 11.986 77.423 12.118C77.577 12.272 77.775 12.338 77.995 12.338C78.215 12.338 78.413 12.272 78.567 12.118C78.699 11.986 78.787 11.788 78.787 11.546C78.787 11.326 78.699 11.128 78.567 10.974ZM77.445 14.846V26H78.567V14.846H77.445ZM81.9528 15.88V23.404C81.9528 24.328 82.1508 24.988 82.5468 25.384C82.9428 25.802 83.6248 26 84.5708 26H86.2428V24.966H84.6148C84.0428 24.966 83.6468 24.856 83.4268 24.614C83.1848 24.372 83.0748 23.954 83.0748 23.382V15.88H86.0448V14.846H83.0748V11.722H81.9528V14.846H79.8408V15.88H81.9528ZM93.9727 10.6V26H95.1607V21.974L98.6807 17.948L104.203 26H105.633L99.5387 17.046L105.127 10.6H103.675L95.1607 20.302V10.6H93.9727ZM117.346 24.966H116.928C116.62 24.966 116.378 24.878 116.202 24.68C116.026 24.504 115.938 24.24 115.938 23.888V18.696C115.938 17.42 115.542 16.452 114.794 15.748C114.024 15.066 112.946 14.714 111.56 14.714C110.284 14.714 109.25 15.022 108.458 15.594C107.666 16.166 107.182 16.958 107.05 17.97H108.172C108.304 17.288 108.678 16.738 109.25 16.32C109.822 15.924 110.592 15.704 111.516 15.704C112.55 15.704 113.364 15.968 113.936 16.496C114.508 17.024 114.816 17.728 114.816 18.652V19.62H111.032C109.602 19.62 108.502 19.928 107.754 20.5C107.006 21.072 106.632 21.886 106.632 22.942C106.632 23.932 106.984 24.702 107.71 25.274C108.414 25.846 109.382 26.132 110.592 26.132C111.648 26.132 112.55 25.912 113.276 25.472C113.98 25.032 114.508 24.438 114.86 23.69V24.152C114.816 24.746 114.948 25.208 115.256 25.516C115.564 25.846 116.026 26 116.686 26H117.346V24.966ZM114.816 20.588V21.49C114.816 22.59 114.442 23.47 113.694 24.152C112.946 24.834 111.934 25.164 110.658 25.164C109.778 25.164 109.074 24.966 108.546 24.548C108.018 24.13 107.776 23.58 107.776 22.876C107.776 22.15 108.04 21.578 108.59 21.182C109.118 20.786 109.91 20.588 110.944 20.588H114.816ZM119.593 15.88V23.404C119.593 24.328 119.791 24.988 120.187 25.384C120.583 25.802 121.265 26 122.211 26H123.883V24.966H122.255C121.683 24.966 121.287 24.856 121.067 24.614C120.825 24.372 120.715 23.954 120.715 23.382V15.88H123.685V14.846H120.715V11.722H119.593V14.846H117.481V15.88H119.593ZM135.457 24.966H135.039C134.731 24.966 134.489 24.878 134.313 24.68C134.137 24.504 134.049 24.24 134.049 23.888V18.696C134.049 17.42 133.653 16.452 132.905 15.748C132.135 15.066 131.057 14.714 129.671 14.714C128.395 14.714 127.361 15.022 126.569 15.594C125.777 16.166 125.293 16.958 125.161 17.97H126.283C126.415 17.288 126.789 16.738 127.361 16.32C127.933 15.924 128.703 15.704 129.627 15.704C130.661 15.704 131.475 15.968 132.047 16.496C132.619 17.024 132.927 17.728 132.927 18.652V19.62H129.143C127.713 19.62 126.613 19.928 125.865 20.5C125.117 21.072 124.743 21.886 124.743 22.942C124.743 23.932 125.095 24.702 125.821 25.274C126.525 25.846 127.493 26.132 128.703 26.132C129.759 26.132 130.661 25.912 131.387 25.472C132.091 25.032 132.619 24.438 132.971 23.69V24.152C132.927 24.746 133.059 25.208 133.367 25.516C133.675 25.846 134.137 26 134.797 26H135.457V24.966ZM132.927 20.588V21.49C132.927 22.59 132.553 23.47 131.805 24.152C131.057 24.834 130.045 25.164 128.769 25.164C127.889 25.164 127.185 24.966 126.657 24.548C126.129 24.13 125.887 23.58 125.887 22.876C125.887 22.15 126.151 21.578 126.701 21.182C127.229 20.786 128.021 20.588 129.055 20.588H132.927ZM142.017 14.846H141.511C140.543 14.846 139.817 15.044 139.289 15.44C138.761 15.836 138.365 16.386 138.101 17.068L137.925 14.846H136.957V26H138.079V20.346C138.079 19.026 138.299 17.97 138.783 17.156C139.245 16.342 140.081 15.924 141.291 15.924H142.017V14.846ZM144.932 10.974C144.778 10.842 144.58 10.754 144.36 10.754C144.14 10.754 143.942 10.842 143.788 10.974C143.634 11.128 143.568 11.326 143.568 11.546C143.568 11.788 143.634 11.986 143.788 12.118C143.942 12.272 144.14 12.338 144.36 12.338C144.58 12.338 144.778 12.272 144.932 12.118C145.064 11.986 145.152 11.788 145.152 11.546C145.152 11.326 145.064 11.128 144.932 10.974ZM143.81 14.846V26H144.932V14.846H143.81ZM157.844 24.966H157.426C157.118 24.966 156.876 24.878 156.7 24.68C156.524 24.504 156.436 24.24 156.436 23.888V18.696C156.436 17.42 156.04 16.452 155.292 15.748C154.522 15.066 153.444 14.714 152.058 14.714C150.782 14.714 149.748 15.022 148.956 15.594C148.164 16.166 147.68 16.958 147.548 17.97H148.67C148.802 17.288 149.176 16.738 149.748 16.32C150.32 15.924 151.09 15.704 152.014 15.704C153.048 15.704 153.862 15.968 154.434 16.496C155.006 17.024 155.314 17.728 155.314 18.652V19.62H151.53C150.1 19.62 149 19.928 148.252 20.5C147.504 21.072 147.13 21.886 147.13 22.942C147.13 23.932 147.482 24.702 148.208 25.274C148.912 25.846 149.88 26.132 151.09 26.132C152.146 26.132 153.048 25.912 153.774 25.472C154.478 25.032 155.006 24.438 155.358 23.69V24.152C155.314 24.746 155.446 25.208 155.754 25.516C156.062 25.846 156.524 26 157.184 26H157.844V24.966ZM155.314 20.588V21.49C155.314 22.59 154.94 23.47 154.192 24.152C153.444 24.834 152.432 25.164 151.156 25.164C150.276 25.164 149.572 24.966 149.044 24.548C148.516 24.13 148.274 23.58 148.274 22.876C148.274 22.15 148.538 21.578 149.088 21.182C149.616 20.786 150.408 20.588 151.442 20.588H155.314Z" fill="black"/>
<rect x="0.5" y="0.5" width="34" height="34" stroke="black"/>
</svg>
