<svg width="164" height="35" viewBox="0 0 164 35" fill="none" xmlns="http://www.w3.org/2000/svg">
<path d="M6.3335 24H8.1792V18.145H11.7168L14.8853 24H17.0488L13.624 17.8579C15.4697 17.2734 16.5977 15.6841 16.5977 13.6333V13.6128C16.5977 10.9468 14.7314 9.20361 11.8809 9.20361H6.3335V24ZM8.1792 16.5146V10.8442H11.6348C13.5317 10.8442 14.6904 11.8901 14.6904 13.6538V13.6743C14.6904 15.4893 13.6138 16.5146 11.7168 16.5146H8.1792ZM18.9253 24H20.771V18.8218L22.3501 17.0889L27.6104 24H29.9688L23.6421 15.7559L29.4253 9.20361H27.1079L20.8325 16.4634H20.771V9.20361H18.9253V24Z" fill="black"/>
<path d="M40.5039 25H42.4375V18.8662H46.1436L49.4629 25H51.7295L48.1416 18.5654C50.0752 17.9531 51.2568 16.2881 51.2568 14.1396V14.1182C51.2568 11.3252 49.3018 9.49902 46.3154 9.49902H40.5039V25ZM42.4375 17.1582V11.2178H46.0576C48.0449 11.2178 49.2588 12.3135 49.2588 14.1611V14.1826C49.2588 16.084 48.1309 17.1582 46.1436 17.1582H42.4375ZM58.0352 25.2148C61.1182 25.2148 63.2021 22.9805 63.2021 19.4141V19.3926C63.2021 15.8262 61.1074 13.6133 58.0244 13.6133C54.9414 13.6133 52.8574 15.8369 52.8574 19.3926V19.4141C52.8574 22.9697 54.9307 25.2148 58.0352 25.2148ZM58.0459 23.5605C56.0693 23.5605 54.7695 22.0459 54.7695 19.4141V19.3926C54.7695 16.7822 56.0801 15.2676 58.0244 15.2676C60.001 15.2676 61.29 16.7715 61.29 19.3926V19.4141C61.29 22.0352 60.0117 23.5605 58.0459 23.5605ZM65.1895 25H67.0586V18.4795C67.0586 16.5781 68.208 15.2676 69.9375 15.2676C71.6777 15.2676 72.709 16.46 72.709 18.4795V25H74.5781V18.1572C74.5781 15.4502 72.9561 13.6133 70.582 13.6133C68.917 13.6133 67.7031 14.3545 67.1016 15.6113H67.0586V9.49902H65.1895V25ZM78.0049 11.9375C78.6602 11.9375 79.1758 11.4111 79.1758 10.7666C79.1758 10.1113 78.6602 9.5957 78.0049 9.5957C77.3604 9.5957 76.834 10.1113 76.834 10.7666C76.834 11.4111 77.3604 11.9375 78.0049 11.9375ZM77.0703 25H78.9395V13.8281H77.0703V25ZM85.1162 25.2148C85.4814 25.2148 85.8789 25.1719 86.1152 25.1396V23.625C85.9541 23.6357 85.7393 23.668 85.5137 23.668C84.5146 23.668 83.9883 23.335 83.9883 22.1426V15.375H86.1152V13.8281H83.9883V10.8096H82.0547V13.8281H80.4219V15.375H82.0547V22.1533C82.0547 24.291 83.0645 25.2148 85.1162 25.2148ZM92.9258 25H94.8594V19.5752L96.5137 17.7598L102.024 25H104.495L97.8672 16.3633L103.926 9.49902H101.498L94.9238 17.1045H94.8594V9.49902H92.9258V25ZM108.792 25.2148C110.285 25.2148 111.628 24.4092 112.283 23.1846H112.326V25H114.195V17.2764C114.195 15.042 112.541 13.6133 109.898 13.6133C107.267 13.6133 105.666 15.0957 105.505 16.9326L105.494 17.0508H107.299L107.32 16.9541C107.535 15.9551 108.438 15.2676 109.877 15.2676C111.435 15.2676 112.326 16.0947 112.326 17.459V18.3936L109.125 18.5762C106.558 18.7266 105.075 19.9189 105.075 21.8203V21.8418C105.075 23.8721 106.568 25.2148 108.792 25.2148ZM106.987 21.8418V21.8203C106.987 20.7783 107.847 20.1123 109.34 20.0264L112.326 19.8438V20.7568C112.326 22.3789 110.973 23.5928 109.211 23.5928C107.868 23.5928 106.987 22.916 106.987 21.8418ZM120.2 25.2148C120.565 25.2148 120.963 25.1719 121.199 25.1396V23.625C121.038 23.6357 120.823 23.668 120.598 23.668C119.599 23.668 119.072 23.335 119.072 22.1426V15.375H121.199V13.8281H119.072V10.8096H117.139V13.8281H115.506V15.375H117.139V22.1533C117.139 24.291 118.148 25.2148 120.2 25.2148ZM126.259 25.2148C127.752 25.2148 129.095 24.4092 129.75 23.1846H129.793V25H131.662V17.2764C131.662 15.042 130.008 13.6133 127.365 13.6133C124.733 13.6133 123.133 15.0957 122.972 16.9326L122.961 17.0508H124.766L124.787 16.9541C125.002 15.9551 125.904 15.2676 127.344 15.2676C128.901 15.2676 129.793 16.0947 129.793 17.459V18.3936L126.592 18.5762C124.024 18.7266 122.542 19.9189 122.542 21.8203V21.8418C122.542 23.8721 124.035 25.2148 126.259 25.2148ZM124.454 21.8418V21.8203C124.454 20.7783 125.313 20.1123 126.807 20.0264L129.793 19.8438V20.7568C129.793 22.3789 128.439 23.5928 126.678 23.5928C125.335 23.5928 124.454 22.916 124.454 21.8418ZM134.036 25H135.905V18.1035C135.905 16.4062 136.851 15.3965 138.301 15.3965C138.752 15.3965 139.149 15.4502 139.3 15.5039V13.6885C139.149 13.667 138.87 13.6133 138.548 13.6133C137.291 13.6133 136.324 14.4297 135.948 15.7188H135.905V13.8281H134.036V25ZM141.878 11.9375C142.533 11.9375 143.049 11.4111 143.049 10.7666C143.049 10.1113 142.533 9.5957 141.878 9.5957C141.233 9.5957 140.707 10.1113 140.707 10.7666C140.707 11.4111 141.233 11.9375 141.878 11.9375ZM140.943 25H142.812V13.8281H140.943V25ZM148.624 25.2148C150.117 25.2148 151.46 24.4092 152.115 23.1846H152.158V25H154.027V17.2764C154.027 15.042 152.373 13.6133 149.73 13.6133C147.099 13.6133 145.498 15.0957 145.337 16.9326L145.326 17.0508H147.131L147.152 16.9541C147.367 15.9551 148.27 15.2676 149.709 15.2676C151.267 15.2676 152.158 16.0947 152.158 17.459V18.3936L148.957 18.5762C146.39 18.7266 144.907 19.9189 144.907 21.8203V21.8418C144.907 23.8721 146.4 25.2148 148.624 25.2148ZM146.819 21.8418V21.8203C146.819 20.7783 147.679 20.1123 149.172 20.0264L152.158 19.8438V20.7568C152.158 22.3789 150.805 23.5928 149.043 23.5928C147.7 23.5928 146.819 22.916 146.819 21.8418Z" fill="black"/>
<rect x="0.5" y="0.5" width="34" height="34" stroke="black"/>
</svg>
